<svg version="1.1" xmlns="http://www.w3.org/2000/svg" xmlns:xlink="http://www.w3.org/1999/xlink" x="0px" y="0px"
	 viewBox="0 0 512 512" style="enable-background:new 0 0 512 512;" xml:space="preserve">
	<path d="M437.333,149.333V42.667C437.333,19.135,418.188,0,394.667,0H117.333C93.813,0,74.667,19.135,74.667,42.667v106.667
		C68.771,149.333,64,154.104,64,160v192c0,5.896,4.771,10.667,10.667,10.667v106.667c0,23.531,19.146,42.667,42.667,42.667
		h277.333c23.521,0,42.667-19.135,42.667-42.667V362.667c5.896,0,10.667-4.771,10.667-10.667V160
		C448,154.104,443.229,149.333,437.333,149.333z M352,42.667c17.646,0,32,14.354,32,32c0,17.646-14.354,32-32,32
		c-17.646,0-32-14.354-32-32C320,57.021,334.354,42.667,352,42.667z M384,117.333c0,5.891-4.776,10.667-10.667,10.667
		s-10.667-4.776-10.667-10.667c0-5.892,4.776-10.667,10.667-10.667S384,111.441,384,117.333z M288,85.333
		c5.891,0,10.667,4.775,10.667,10.667c0,5.891-4.776,10.667-10.667,10.667S277.333,101.891,277.333,96
		C277.333,90.108,282.109,85.333,288,85.333z M160,448c-17.646,0-32-14.354-32-32c0-17.646,14.354-32,32-32s32,14.354,32,32
		C192,433.646,177.646,448,160,448z M202.667,469.333c-5.891,0-10.667-4.776-10.667-10.667c0-5.892,4.776-10.667,10.667-10.667
		s10.667,4.775,10.667,10.667C213.333,464.557,208.557,469.333,202.667,469.333z M426.667,341.333H85.333V170.667h341.333V341.333
		z"/>
	<path d="M181.333,288c0,17.646,14.354,32,32,32c17.646,0,32-14.354,32-32v-42.667c0-17.646-14.354-32-32-32
		c-17.646,0-32,14.354-32,32V288z M202.667,245.333c0-5.885,4.792-10.667,10.667-10.667S224,239.448,224,245.333V288
		c0,5.885-4.792,10.667-10.667,10.667s-10.667-4.781-10.667-10.667V245.333z"/>
	<path d="M277.333,320c5.896,0,10.667-4.771,10.667-10.667v-32h21.333c5.896,0,10.667-4.771,10.667-10.667
		c0-5.896-4.771-10.667-10.667-10.667H288v-21.333h32c5.896,0,10.667-4.771,10.667-10.667s-4.771-10.667-10.667-10.667h-42.667
		c-5.896,0-10.667,4.771-10.667,10.667v85.333C266.667,315.229,271.438,320,277.333,320z"/>
	<path d="M373.333,320c17.646,0,32-14.354,32-32v-64c0-5.896-4.771-10.667-10.667-10.667S384,218.104,384,224v64
		c0,5.885-4.792,10.667-10.667,10.667s-10.667-4.781-10.667-10.667v-64c0-5.896-4.771-10.667-10.667-10.667
		c-5.896,0-10.667,4.771-10.667,10.667v64C341.333,305.646,355.688,320,373.333,320z"/>
	<path d="M106.667,234.667H128v74.667c0,5.896,4.771,10.667,10.667,10.667c5.896,0,10.667-4.771,10.667-10.667v-74.667h21.333
		c5.896,0,10.667-4.771,10.667-10.667s-4.771-10.667-10.667-10.667h-64C100.771,213.333,96,218.104,96,224
		S100.771,234.667,106.667,234.667z"/>
</svg>